<?xml version="1.0" encoding="iso-8859-1"?>
<!-- Generator: Adobe Illustrator 19.0.0, SVG Export Plug-In . SVG Version: 6.00 Build 0)  -->
<svg version="1.1" id="Capa_1" xmlns="http://www.w3.org/2000/svg" xmlns:xlink="http://www.w3.org/1999/xlink" x="0px" y="0px"
	 viewBox="0 0 512 512" style="enable-background:new 0 0 512 512;" xml:space="preserve">
<g>
	<path style="fill:#116F97;" d="M13.954,269.254v65.652c0,4.204,3.408,7.612,7.611,7.612s7.611-3.408,7.611-7.612v-65.652H13.954z"
		/>
	<path style="fill:#116F97;" d="M44.4,269.254v65.652c0,4.204,3.408,7.612,7.611,7.612s7.611-3.408,7.611-7.612v-65.652H44.4z"/>
</g>
<path style="fill:#C27749;" d="M74.846,187.75l30.446,45.669H29.177L44.4,157.304C61.217,157.304,74.846,170.934,74.846,187.75z"/>
<path style="fill:#E18F4E;" d="M44.4,157.304v76.115l-30.446-30.446V187.75C13.954,170.934,27.584,157.304,44.4,157.304z"/>
<polygon style="fill:#1990C2;" points="44.4,202.973 29.177,246.105 44.4,289.551 105.292,289.551 74.846,202.973 "/>
<path style="fill:#49C9FF;" d="M13.954,202.973v66.281c0,11.164,9.134,20.297,20.297,20.297H44.4v-86.578H13.954z"/>
<path style="fill:#116F97;" d="M11.417,195.362c-4.204,0-7.611,3.408-7.611,7.611c0,4.204,3.408,7.611,7.611,7.611h71.041v-15.223
	H11.417z"/>
<g>
	<polygon style="fill:#869E47;" points="400.923,439.437 283.198,287.207 165.474,439.437 	"/>
	<polygon style="fill:#869E47;" points="437.032,316.973 508.194,408.991 390.47,439.437 390.47,316.973 	"/>
</g>
<polygon style="fill:#9DB55F;" points="428.334,322.799 343.908,316.973 272.745,408.991 390.47,439.437 477.748,408.991 "/>
<path style="fill:#A8E5FF;" d="M390.47,256.761l46.562,60.212c-2.75,2.131-5.653,4.08-8.697,5.825H390.47V256.761z"/>
<path style="fill:#DBF4FF;" d="M390.47,256.761l37.865,66.037c-11.153,6.414-24.083,10.078-37.865,10.078
	c-17.537,0-33.694-5.937-46.562-15.903L390.47,256.761z"/>
<polygon style="fill:#9DB55F;" points="477.748,408.991 447.302,449.078 477.748,489.166 508.194,489.166 508.194,408.991 "/>
<rect x="3.806" y="408.991" style="fill:#B9D171;" width="473.943" height="80.174"/>
<polygon style="fill:#696969;" points="90.069,458.72 74.846,438.422 74.846,289.237 90.069,289.237 "/>
<path style="fill:#E18F4E;" d="M130.534,497.166l-17.63-5.877v-52.866H74.846v48.334l0.357,0.118
	c-1.248,3.955,0.898,8.194,4.847,9.51l45.669,15.223c3.987,1.329,8.299-0.825,9.628-4.814
	C136.677,502.805,134.522,498.494,130.534,497.166z"/>
<polygon style="fill:#4F4F4F;" points="166.184,458.72 150.961,438.422 150.961,289.237 166.184,289.237 "/>
<path style="fill:#C27749;" d="M206.649,497.166l-17.63-5.877v-52.866h-38.057v48.334l0.357,0.118
	c-1.248,3.955,0.898,8.194,4.847,9.51l45.669,15.223c3.987,1.329,8.299-0.825,9.628-4.814
	C212.792,502.805,210.637,498.494,206.649,497.166z"/>
<path style="fill:#4F4F4F;" d="M120.515,228.345v106.561c25.222,0,45.669-20.132,45.669-45.354L120.515,228.345z"/>
<path style="fill:#696969;" d="M135.738,289.551v-61.207l-60.892,61.207c0,25.222,20.447,45.354,45.669,45.354
	C128.923,334.906,135.738,314.774,135.738,289.551z"/>
<path style="fill:#FFA754;" d="M145.887,167.453h-30.446l20.297,122.099h30.446V187.75
	C166.184,176.54,157.097,167.453,145.887,167.453z"/>
<path style="fill:#FFCB63;" d="M115.441,167.768H95.144c-11.21,0-20.297,9.087-20.297,20.297v71.041l60.892,30.446V188.065
	C135.738,176.855,126.651,167.768,115.441,167.768z"/>
<path style="fill:#084F6D;" d="M115.441,259.105H74.846v30.446l60.892,0.001v-10.15
	C135.738,268.193,126.651,259.105,115.441,259.105z"/>
<path style="fill:#40211D;" d="M189.019,68.503c0-5.098-2.515-9.599-6.361-12.361c2.497-4.025,3.097-9.145,1.147-13.854
	c-1.951-4.709-5.996-7.906-10.607-8.986c0.766-4.673-0.638-9.634-4.242-13.238c-3.605-3.605-8.564-5.009-13.238-4.242
	c-1.081-4.611-4.277-8.657-8.986-10.607c-4.709-1.951-9.83-1.35-13.854,1.147C130.114,2.515,125.613,0,120.515,0
	c-5.098,0-9.599,2.515-12.361,6.361c-4.025-2.497-9.145-3.097-13.854-1.147c-4.709,1.951-7.906,5.996-8.986,10.607
	c-4.673-0.766-9.634,0.638-13.238,4.242c-3.605,3.605-5.009,8.564-4.242,13.238c-4.611,1.081-8.657,4.277-10.607,8.986
	c-1.951,4.709-1.35,9.83,1.147,13.854c-3.846,2.762-6.361,7.263-6.361,12.361c0,5.098,2.515,9.599,6.361,12.361
	c-2.497,4.025-3.097,9.145-1.147,13.854c1.951,4.709,5.996,7.906,10.607,8.986c-0.766,4.673,0.638,9.634,4.242,13.238
	c3.748,3.748,8.964,5.133,13.798,4.155h69.283c4.833,0.978,10.049-0.407,13.798-4.155c3.605-3.605,5.009-8.564,4.242-13.238
	c4.611-1.081,8.657-4.277,10.607-8.986c1.951-4.709,1.35-9.83-1.147-13.854C186.504,78.102,189.019,73.601,189.019,68.503z"/>
<path style="fill:#60312C;" d="M120.515,45.669v91.338c25.222,0,45.669-20.447,45.669-45.669S145.738,45.669,120.515,45.669z"/>
<path style="fill:#85453D;" d="M135.738,91.338c0-25.222-6.816-45.669-15.223-45.669c-25.222,0-45.669,20.447-45.669,45.669
	s20.447,45.669,45.669,45.669C128.923,137.007,135.738,116.56,135.738,91.338z"/>
<rect x="196.63" y="129.395" style="fill:#FFCB63;" width="45.669" height="30.446"/>
<polygon style="fill:#49C9FF;" points="318.411,121.784 303.188,144.618 318.411,167.453 348.857,167.453 348.857,121.784 "/>
<rect x="227.076" y="121.784" style="fill:#084F6D;" width="91.335" height="45.669"/>
<path style="fill:#FFCB63;" d="M135.738,205.825c-4.204,0-7.611-3.408-7.611-7.611c0-4.204,3.407-7.611,7.611-7.611l57.615-0.001
	c30.018,0,57.91-16.039,72.794-41.857c2.1-3.642,6.755-4.893,10.395-2.793c3.641,2.099,4.893,6.754,2.793,10.395
	c-17.593,30.519-50.539,49.478-85.982,49.478L135.738,205.825z"/>
<path style="fill:#A8E5FF;" d="M267.975,226.315h-30.446v30.446h30.446c8.407,0,15.223-6.816,15.223-15.223
	S276.383,226.315,267.975,226.315z"/>
<circle style="fill:#DBF4FF;" cx="237.529" cy="241.538" r="15.223"/>
<path style="fill:#A8E5FF;" d="M455.563,104.531h-30.446v30.446h30.446c8.407,0,15.223-6.816,15.223-15.223
	S463.97,104.531,455.563,104.531z"/>
<circle style="fill:#DBF4FF;" cx="425.117" cy="119.754" r="15.223"/>
<path style="fill:#A8E5FF;" d="M486.009,195.869c0-16.815-13.632-30.446-30.446-30.446h-30.446l30.446,60.892h30.446
	c8.407,0,15.223-6.816,15.223-15.223S494.416,195.869,486.009,195.869z"/>
<path style="fill:#DBF4FF;" d="M455.563,195.869c0-16.815-13.632-30.446-30.446-30.446s-30.446,13.631-30.446,30.446h-45.814
	c-8.407,0-15.223,6.816-15.223,15.223s6.816,15.223,15.223,15.223h106.706c8.407,0,15.223-6.816,15.223-15.223
	S463.97,195.869,455.563,195.869z"/>
<g>
</g>
<g>
</g>
<g>
</g>
<g>
</g>
<g>
</g>
<g>
</g>
<g>
</g>
<g>
</g>
<g>
</g>
<g>
</g>
<g>
</g>
<g>
</g>
<g>
</g>
<g>
</g>
<g>
</g>
</svg>
